<?xml version="1.0" standalone="no"?>
<!DOCTYPE svg PUBLIC "-//W3C//DTD SVG 20010904//EN"
 "http://www.w3.org/TR/2001/REC-SVG-20010904/DTD/svg10.dtd">
<svg version="1.0" xmlns="http://www.w3.org/2000/svg"
 width="600.000000pt" height="299.000000pt" viewBox="0 0 600.000000 299.000000"
 preserveAspectRatio="xMidYMid meet">
<g transform="translate(0.000000,299.000000) scale(0.100000,-0.100000)"
fill="#000000" stroke="none">
<path d="M1603 2356 c-13 -6 -23 -17 -23 -24 0 -7 -5 -10 -10 -7 -6 4 -9 1 -8
-6 2 -6 -3 -14 -11 -17 -9 -3 -11 0 -6 9 7 12 5 12 -6 1 -8 -7 -14 -20 -14
-30 0 -10 -6 -16 -15 -14 -8 2 -12 1 -9 -2 7 -7 -72 -92 -82 -89 -4 1 -13 -5
-21 -14 -11 -14 -11 -16 2 -8 8 4 4 -4 -9 -18 -14 -15 -30 -27 -37 -27 -8 0
-11 -6 -7 -16 5 -14 3 -15 -18 -4 -18 9 -21 9 -13 0 9 -9 5 -18 -15 -38 -14
-15 -30 -26 -34 -24 -5 1 -7 -1 -4 -5 2 -5 -10 -21 -26 -38 -17 -16 -27 -24
-22 -16 5 10 4 12 -3 7 -7 -4 -12 -13 -12 -20 0 -14 -45 -56 -59 -56 -6 0 -13
-5 -17 -12 -5 -7 -3 -8 7 -3 12 8 12 6 0 -8 -7 -9 -17 -15 -21 -12 -5 3 -12 0
-16 -6 -5 -8 -3 -9 7 -4 8 4 4 -2 -8 -14 -12 -11 -27 -21 -32 -21 -5 0 -13 -5
-17 -12 -5 -7 -3 -8 7 -3 12 8 12 6 0 -8 -7 -9 -18 -14 -24 -10 -5 3 -7 2 -4
-4 6 -10 -26 -43 -43 -43 -5 0 -12 -5 -16 -12 -5 -7 -3 -8 7 -3 8 5 2 -4 -13
-19 -15 -15 -31 -25 -37 -22 -5 4 -13 1 -17 -5 -4 -8 -3 -9 4 -5 21 13 13 -4
-14 -29 -15 -14 -30 -22 -35 -19 -5 3 -6 -2 -3 -11 5 -12 2 -16 -12 -13 -10 2
-19 -3 -19 -10 0 -7 -7 -17 -15 -22 -8 -5 -11 -10 -6 -10 11 0 -65 -70 -76
-70 -4 0 -10 -9 -13 -21 -5 -16 -9 -18 -21 -8 -12 9 -13 9 -9 -3 7 -19 -20
-42 -37 -32 -7 4 -10 4 -6 -1 14 -15 -12 -45 -36 -41 -15 3 -23 -1 -23 -10 0
-10 4 -11 14 -3 7 6 13 7 13 3 0 -14 -68 -73 -75 -66 -4 4 -5 0 -3 -8 2 -8 -3
-14 -9 -13 -7 2 -13 -2 -13 -8 0 -19 -160 -168 -183 -170 -6 0 -3 -4 8 -9 11
-5 14 -9 7 -9 -10 -1 -10 -5 0 -21 10 -16 22 -19 60 -18 26 1 44 6 41 12 -4 5
1 7 10 3 9 -3 18 -1 21 6 3 9 5 9 5 0 1 -7 6 -13 13 -13 6 0 8 3 4 7 -8 8 92
35 104 28 5 -3 10 0 12 7 2 6 20 12 40 12 20 1 34 5 31 9 -2 4 7 6 21 3 18 -3
24 -1 20 6 -5 7 0 9 14 6 12 -4 25 -2 28 3 3 5 11 8 17 7 20 -5 77 24 70 35
-4 6 0 8 10 4 9 -3 16 -3 14 1 -1 4 8 20 21 36 12 16 22 25 22 20 1 -5 8 3 16
19 8 15 19 27 25 27 6 0 24 15 41 33 18 17 25 23 17 12 -13 -18 -13 -19 3 -6
10 7 15 17 12 22 -8 13 38 50 54 44 7 -3 10 0 7 5 -4 6 6 10 22 11 56 1 139
10 170 19 22 5 33 5 36 -3 3 -9 9 -7 22 3 10 8 20 14 22 13 1 -2 28 -3 58 -3
46 0 60 4 80 24 13 13 26 22 28 19 3 -2 8 5 12 16 3 12 11 21 17 21 7 0 6 -5
-1 -14 -9 -11 -9 -16 0 -22 7 -4 9 -3 5 4 -3 6 -2 13 4 17 6 4 7 11 4 17 -4 6
0 16 8 22 15 11 38 49 38 63 0 4 -33 -24 -72 -63 l-73 -71 -170 -17 c-93 -9
-183 -16 -200 -16 -25 0 -51 -21 -160 -129 l-130 -129 -215 -52 c-118 -28
-224 -54 -235 -57 -10 -3 268 280 619 628 506 502 644 634 664 634 23 0 31
-13 85 -135 104 -237 294 -662 336 -753 23 -49 41 -90 41 -90 0 -1 -72 -2
-160 -2 l-160 0 -21 50 c-12 28 -57 129 -101 225 -44 96 -89 196 -101 223 -11
26 -23 47 -26 47 -4 0 -78 -72 -166 -161 -88 -89 -150 -156 -138 -150 13 7 87
11 191 11 127 0 171 3 175 13 3 9 -23 12 -113 12 -85 0 -121 4 -134 14 -14 12
-16 12 -9 -4 5 -15 3 -17 -11 -12 -10 4 -20 7 -22 7 -3 0 0 9 6 20 6 11 15 18
21 15 5 -4 8 -3 7 2 -2 5 16 28 38 51 39 41 41 42 39 18 -2 -15 0 -24 5 -21 4
2 6 16 5 29 -3 27 13 46 42 51 10 1 17 7 16 13 -3 14 31 42 42 34 15 -11 46
-74 40 -81 -3 -3 -10 1 -15 9 -8 12 -10 12 -10 2 0 -8 9 -16 20 -19 11 -3 21
-9 21 -14 3 -20 5 -24 12 -36 5 -7 5 -17 2 -23 -3 -5 2 -10 12 -10 15 0 16 -2
3 -10 -13 -8 -12 -10 3 -10 10 0 16 -4 12 -9 -3 -5 2 -16 10 -24 17 -18 20
-31 5 -22 -6 3 4 -14 21 -40 17 -25 32 -57 33 -70 0 -13 5 -21 10 -17 5 3 7
-5 4 -16 -4 -12 -3 -20 2 -17 11 7 22 -24 13 -37 -3 -6 -2 -8 4 -5 11 7 32
-33 34 -61 0 -9 3 -12 5 -6 3 7 14 10 24 7 12 -3 17 -10 13 -17 -4 -7 -1 -6 9
1 15 13 232 11 274 -3 15 -5 16 -4 4 5 -13 9 -13 11 3 11 9 0 17 5 17 11 0 5
5 7 11 3 8 -4 9 1 5 17 -3 13 -3 18 0 12 3 -7 13 -13 22 -13 13 0 14 -2 4 -9
-9 -6 -5 -8 15 -9 15 0 42 -3 58 -6 17 -4 167 -6 334 -6 233 1 307 -2 319 -12
12 -10 14 -10 8 0 -5 8 0 12 16 12 16 0 19 3 10 9 -11 7 -10 10 3 15 25 9 27
8 21 -16 -3 -13 -3 -17 0 -10 3 6 10 12 15 12 6 0 8 -4 4 -9 -3 -5 0 -13 6
-17 7 -4 9 -3 5 4 -4 8 122 11 441 11 451 1 491 2 528 16 16 5 17 5 5 -4 -27
-19 2 -12 37 10 19 12 41 18 50 14 10 -3 14 -3 10 1 -4 4 6 13 23 20 16 7 30
20 30 28 0 10 7 13 21 11 17 -4 19 -2 9 10 -7 9 -8 15 -2 15 19 0 61 115 65
177 0 7 4 10 9 7 5 -3 6 -9 4 -13 -7 -11 -16 -184 -9 -177 3 3 13 -9 22 -27 9
-17 31 -39 49 -47 18 -9 30 -19 26 -22 -3 -4 2 -7 12 -7 11 0 42 -3 69 -7 74
-9 814 -10 808 -1 -2 4 11 7 29 7 19 0 42 6 53 13 11 7 27 13 35 12 8 0 23 10
33 22 10 13 22 21 27 18 5 -3 11 4 15 15 3 11 10 20 15 20 4 0 11 11 14 25 4
14 10 23 15 20 8 -4 25 40 19 48 -2 2 5 15 15 31 10 15 16 30 13 34 -3 3 -6
-1 -6 -8 0 -7 -2 -11 -5 -8 -3 3 2 21 10 41 8 20 14 40 14 44 -5 23 15 92 24
86 7 -4 8 0 4 12 -4 9 -2 24 4 31 6 7 8 17 5 23 -8 12 4 42 13 36 4 -2 5 10 3
27 -4 23 -1 29 8 23 9 -5 10 -2 6 12 -4 11 -1 33 5 49 13 33 18 145 7 137 -5
-2 -8 2 -8 10 0 8 -9 22 -20 32 -12 10 -19 24 -16 31 3 7 -2 11 -12 10 -9 -2
-27 3 -41 11 -15 7 -43 16 -64 20 -28 4 -35 8 -25 15 9 7 7 8 -7 3 -11 -3
-191 -7 -400 -9 -378 -3 -442 -8 -501 -39 -24 -12 -34 -13 -44 -4 -10 9 -11 9
-6 0 4 -7 2 -13 -3 -13 -6 0 -10 -3 -9 -7 3 -10 -49 -63 -55 -57 -5 6 -32 -69
-53 -146 -8 -30 -18 -62 -21 -70 -3 -8 -7 -22 -8 -30 -6 -44 -29 -136 -37
-145 -4 -5 -8 -22 -8 -37 0 -15 -4 -28 -9 -28 -5 0 -9 15 -9 33 0 33 -25 91
-34 81 -3 -2 -8 2 -11 10 -4 9 -2 18 4 21 5 4 6 11 3 17 -5 7 -1 9 9 5 16 -6
22 3 18 26 -1 5 2 6 7 3 5 -3 14 6 20 19 7 14 16 25 22 25 6 0 8 5 5 10 -3 6
-2 10 4 10 6 0 8 7 5 15 -4 8 -1 15 5 15 6 0 10 3 9 8 -1 4 2 30 7 57 13 79
11 98 -12 125 -13 14 -23 28 -23 32 0 23 -133 61 -205 59 -32 -1 -37 1 -25 10
13 9 12 10 -3 5 -10 -3 -202 -6 -426 -6 -347 -1 -410 -3 -415 -15 -3 -8 -11
-12 -18 -10 -10 4 -14 -6 -15 -32 -1 -50 -24 -157 -34 -163 -4 -3 -7 -12 -6
-20 1 -25 -15 -100 -24 -106 -4 -2 -6 -11 -3 -18 3 -8 1 -17 -5 -20 -6 -4 -7
-14 -4 -23 4 -11 3 -14 -6 -9 -8 5 -12 3 -10 -5 4 -27 -14 -119 -22 -113 -4 2
-8 -8 -8 -23 1 -32 -4 -60 -13 -69 -4 -3 -4 -12 -1 -20 9 -23 -16 -16 -42 12
-15 17 -25 22 -25 13 0 -14 -8 -14 -492 -9 -16 0 -29 7 -32 18 -7 23 17 105
29 95 4 -4 5 -2 1 5 -8 14 10 104 27 137 6 11 12 30 13 42 5 42 45 198 60 230
18 40 15 91 -6 93 -8 1 -79 4 -157 6 -133 5 -143 4 -162 -15 -12 -12 -21 -27
-21 -34 0 -8 -3 -17 -7 -20 -3 -4 -7 -19 -9 -34 -4 -51 -37 -183 -43 -178 -4
2 -6 -9 -5 -26 1 -16 -2 -31 -7 -34 -4 -3 -5 -13 -2 -23 6 -14 4 -15 -8 -5
-12 10 -15 8 -15 -7 0 -10 5 -16 10 -13 6 4 6 -1 2 -13 -9 -22 -15 -48 -21
-84 -2 -14 -13 -53 -23 -87 -11 -35 -16 -63 -10 -63 5 0 6 -5 2 -11 -10 -16
-27 18 -20 38 4 11 2 14 -9 9 -8 -3 -15 0 -15 7 0 7 -6 24 -14 39 -8 14 -11
30 -7 35 3 4 4 7 2 6 -9 -6 -88 162 -83 176 3 8 1 12 -5 8 -8 -5 -25 24 -20
36 0 1 -6 13 -13 27 -8 14 -13 30 -12 36 1 7 -4 14 -13 18 -8 3 -15 17 -15 31
0 18 -4 24 -12 18 -7 -4 -5 6 6 22 10 17 13 24 5 18 -17 -17 -30 -16 -23 0 3
8 -2 20 -11 27 -8 7 -15 18 -15 25 0 8 -8 28 -17 47 -30 60 -33 68 -33 83 0 8
-4 15 -10 15 -5 0 -10 7 -10 15 0 23 -37 55 -62 54 -13 -1 -33 -6 -45 -13z
m917 -162 c0 -3 -16 -67 -36 -142 -90 -345 -114 -437 -114 -444 0 -4 7 -14 16
-22 13 -14 54 -16 293 -16 l278 0 -26 -105 -25 -106 -351 3 c-287 2 -355 6
-379 18 -23 12 -39 35 -67 102 l-38 87 77 315 77 316 148 0 c81 0 147 -3 147
-6z m1643 -18 c63 -24 87 -56 87 -116 0 -58 -23 -136 -53 -181 -25 -38 -89
-78 -127 -80 -20 -1 -18 -3 14 -13 82 -25 104 -92 72 -214 -32 -120 -96 -178
-219 -201 -90 -16 -973 -15 -968 1 14 48 191 760 197 791 l6 39 472 -4 c421
-4 476 -6 519 -22z m1222 13 c113 -21 148 -55 147 -142 0 -30 -26 -155 -60
-289 -77 -303 -102 -344 -234 -382 -49 -15 -111 -16 -479 -14 -406 3 -426 4
-464 24 -46 24 -75 72 -75 126 0 21 27 146 59 280 65 265 81 298 159 351 73
49 131 55 528 56 221 1 383 -3 419 -10z m-2398 -644 c0 -8 -4 -12 -9 -9 -5 3
-6 10 -3 15 9 13 12 11 12 -6z"/>
<path d="M3975 2010 c10 -11 20 -20 23 -20 3 0 -3 9 -13 20 -10 11 -20 20 -23
20 -3 0 3 -9 13 -20z"/>
<path d="M3365 2000 c-3 -5 -1 -10 4 -10 6 0 11 5 11 10 0 6 -2 10 -4 10 -3 0
-8 -4 -11 -10z"/>
<path d="M3411 1972 c-6 -21 -14 -52 -17 -70 l-6 -32 243 0 c273 0 285 3 308
64 14 37 14 40 -8 57 -21 17 -44 19 -267 19 l-243 0 -10 -38z m489 3 c16 10
20 -28 6 -50 -17 -26 1 -24 -261 -24 -153 0 -211 3 -217 12 -11 17 -10 29 2
22 5 -3 8 0 5 7 -12 33 9 38 210 40 110 2 211 0 223 -5 13 -4 27 -5 32 -2z"/>
<path d="M3340 1658 c-6 -24 -15 -55 -20 -70 l-9 -28 262 0 c294 0 300 2 312
71 12 68 8 69 -280 69 l-254 0 -11 -42z m511 -2 c0 -6 2 -19 4 -29 4 -20 -38
-42 -62 -33 -8 3 -12 2 -9 -2 2 -4 -39 -6 -92 -5 -54 1 -153 2 -221 3 l-123 0
7 28 c3 15 11 29 16 30 5 2 7 8 3 13 -3 5 91 8 235 7 164 -1 241 -5 242 -12z"/>
<path d="M4664 1993 c-12 -2 -29 -12 -37 -21 -16 -18 -97 -323 -97 -366 0 -40
40 -46 289 -46 232 0 286 7 314 38 18 20 99 326 95 357 -6 40 -39 45 -298 43
-135 0 -255 -3 -266 -5z m270 -27 c121 0 230 -5 241 -9 16 -7 17 -7 5 3 -13
10 -13 11 0 7 21 -5 24 -48 6 -92 -9 -21 -16 -50 -16 -66 0 -15 -4 -31 -10
-34 -5 -3 -10 -17 -10 -29 0 -13 -7 -29 -15 -36 -9 -7 -13 -21 -10 -31 11 -32
-6 -67 -35 -78 -34 -11 -484 -15 -477 -4 3 4 -8 8 -24 9 -17 1 -26 -3 -22 -9
3 -6 1 -7 -4 -4 -11 7 -7 39 15 107 21 68 42 160 42 185 0 15 4 23 10 20 5 -3
7 0 5 8 -7 17 30 61 44 52 6 -3 11 -1 11 5 0 6 5 8 11 4 6 -4 111 -7 233 -8z"/>
<path d="M5137 1799 c4 -13 8 -18 11 -10 2 7 -1 18 -6 23 -8 8 -9 4 -5 -13z"/>
<path d="M1741 2294 c0 -11 3 -14 6 -6 3 7 2 16 -1 19 -3 4 -6 -2 -5 -13z"/>
<path d="M1616 2292 c-3 -5 1 -9 9 -9 8 0 12 4 9 9 -3 4 -7 8 -9 8 -2 0 -6 -4
-9 -8z"/>
<path d="M2510 2260 c-9 -6 -10 -10 -3 -10 6 0 15 5 18 10 8 12 4 12 -15 0z"/>
<path d="M2530 2245 c-11 -13 -10 -14 4 -9 9 3 16 10 16 15 0 13 -6 11 -20 -6z"/>
<path d="M1589 2238 c-6 -20 -6 -39 0 -42 4 -3 7 6 7 20 0 20 -4 32 -7 22z"/>
<path d="M1503 2138 c1 -7 -4 -12 -11 -10 -8 1 -11 -2 -7 -8 5 -8 11 -8 21 1
7 6 11 15 8 20 -8 13 -14 11 -11 -3z"/>
<path d="M1200 2026 c0 -2 7 -9 15 -16 9 -7 15 -8 15 -2 0 5 -7 12 -15 16 -8
3 -15 4 -15 2z"/>
<path d="M1343 1978 c1 -7 -4 -12 -11 -10 -8 1 -11 -2 -7 -8 5 -8 11 -8 21 1
7 6 11 15 8 20 -8 13 -14 11 -11 -3z"/>
<path d="M1557 1939 c7 -7 15 -10 18 -7 3 3 -2 9 -12 12 -14 6 -15 5 -6 -5z"/>
<path d="M5582 1920 c-6 -11 -12 -30 -12 -42 0 -19 -2 -20 -10 -8 -8 12 -10
10 -11 -10 -1 -14 -1 -29 0 -34 3 -18 -11 -45 -22 -42 -7 1 -9 1 -4 -1 11 -7
9 -53 -3 -53 -5 0 -6 -7 -3 -17 4 -10 2 -14 -5 -9 -6 3 -14 1 -18 -5 -5 -8 -3
-9 6 -4 14 9 12 -4 -16 -103 -9 -34 -19 -50 -26 -46 -7 4 -8 3 -4 -5 4 -6 2
-19 -6 -28 -11 -14 -11 -16 1 -9 8 6 7 0 -4 -18 -9 -14 -22 -23 -28 -19 -5 3
-7 1 -4 -5 9 -13 -2 -44 -14 -37 -4 3 -13 -4 -19 -15 -6 -11 -15 -19 -19 -17
-5 1 -10 -2 -11 -8 -3 -15 -21 -35 -44 -47 -18 -10 -19 -9 -9 4 10 12 10 15
-2 15 -7 0 -14 -3 -13 -6 2 -22 -5 -31 -22 -31 -12 0 -32 -7 -45 -16 -14 -9
-33 -14 -43 -12 -12 3 -22 -3 -29 -19 -10 -20 -8 -25 10 -35 28 -15 117 -12
144 5 7 4 21 4 30 -1 18 -10 49 9 36 22 -4 3 3 6 15 6 11 0 29 3 39 6 10 3 7
-2 -7 -10 -28 -17 -19 -22 11 -6 15 9 17 15 9 31 -6 10 -7 18 -3 17 12 -3 93
77 93 92 0 6 14 33 31 58 17 26 24 40 15 33 -18 -15 -20 -11 -7 21 19 47 24
64 27 98 2 19 6 49 9 65 4 17 11 64 16 105 12 98 14 108 22 116 4 4 7 12 7 18
0 6 -5 4 -10 -4 -8 -12 -10 -11 -10 8 0 27 -21 29 -38 2z m14 -81 c-8 -46 -22
-130 -31 -187 -43 -273 -132 -371 -359 -398 -66 -7 -73 9 -8 19 110 18 230
117 282 232 25 57 110 362 110 396 0 16 10 32 17 25 2 -2 -3 -41 -11 -87z"/>
<path d="M4205 1831 c-3 -6 -1 -11 4 -11 6 0 10 -4 9 -9 -2 -5 2 -9 7 -10 14
-1 13 31 -2 36 -6 2 -14 -1 -18 -6z"/>
<path d="M5520 1835 c0 -5 5 -17 10 -25 5 -8 10 -10 10 -5 0 6 -5 17 -10 25
-5 8 -10 11 -10 5z"/>
<path d="M1184 1816 c1 -8 5 -18 8 -22 4 -3 5 1 4 10 -1 8 -5 18 -8 22 -4 3
-5 -1 -4 -10z"/>
<path d="M1101 1746 c-8 -10 -9 -16 -1 -21 5 -3 10 -5 11 -3 4 18 7 38 4 38
-1 0 -8 -6 -14 -14z"/>
<path d="M914 1588 c-4 -7 -4 -10 1 -6 4 4 15 2 24 -5 14 -11 14 -10 2 6 -16
20 -18 21 -27 5z"/>
<path d="M734 1529 c-9 -15 12 -17 30 -4 17 13 17 14 -4 12 -12 -1 -24 -5 -26
-8z"/>
<path d="M834 1508 l-19 -23 23 19 c21 18 27 26 19 26 -2 0 -12 -10 -23 -22z"/>
<path d="M1806 1457 c3 -10 9 -15 12 -12 3 3 0 11 -7 18 -10 9 -11 8 -5 -6z"/>
<path d="M4190 1411 c0 -6 4 -13 10 -16 6 -3 7 1 4 9 -7 18 -14 21 -14 7z"/>
<path d="M4258 1353 c7 -3 16 -2 19 1 4 3 -2 6 -13 5 -11 0 -14 -3 -6 -6z"/>
<path d="M5472 1338 c-18 -18 -15 -24 17 -23 16 0 27 4 24 8 -3 5 -12 6 -20 3
-11 -4 -13 -2 -9 9 7 18 4 19 -12 3z"/>
<path d="M1095 1243 c-31 -5 -55 -19 -55 -33 0 -10 50 -30 75 -29 56 1 131
-20 79 -22 -28 -1 -54 -5 -99 -13 -69 -13 -96 -15 -90 -7 2 5 -14 2 -37 -6
-22 -8 -48 -11 -56 -8 -7 3 -34 -2 -58 -10 -24 -8 -63 -17 -87 -20 -88 -10
-132 -17 -147 -22 -8 -3 -27 -6 -42 -6 -16 0 -28 -4 -28 -9 0 -5 -21 -9 -47
-9 -83 1 -93 -1 -86 -12 4 -6 0 -8 -10 -4 -10 3 -17 2 -17 -3 0 -6 -13 -10
-29 -10 -34 0 -91 -18 -109 -35 -15 -14 -6 -45 14 -45 8 0 14 -6 14 -12 0 -9
4 -8 10 2 5 8 10 11 10 6 0 -5 7 -3 15 4 12 10 15 10 15 -1 0 -9 3 -10 8 -4 4
6 18 11 32 12 107 9 269 25 335 34 44 6 103 12 132 12 28 1 49 5 47 8 -2 3 9
6 24 7 61 1 171 12 211 21 27 6 53 6 68 0 31 -12 42 -11 23 1 -12 8 -12 10 5
11 11 0 29 2 40 4 37 7 209 27 256 30 25 1 56 6 69 10 17 6 21 4 14 -6 -6 -12
-5 -12 8 -1 9 7 22 12 30 11 7 -2 36 1 63 4 140 20 202 24 230 13 16 -6 17 -6
5 3 -17 12 -15 12 54 16 36 2 54 8 67 23 9 12 20 18 23 14 4 -3 4 2 0 12 -5
12 -4 17 3 13 6 -4 8 3 5 20 -5 26 -5 26 -21 6 -9 -11 -20 -28 -26 -37 -8 -13
-63 -22 -280 -46 -258 -28 -1356 -153 -1460 -166 -83 -11 -39 12 60 30 460 85
934 159 1103 173 45 3 81 7 80 8 -2 2 -79 8 -173 14 -278 18 -308 21 -313 26
-3 3 223 5 501 5 331 0 507 3 507 10 0 6 -12 10 -27 10 -246 5 -916 6 -938 3z"/>
<path d="M2160 1238 c-11 -4 -25 -20 -30 -35 -6 -16 -13 -35 -17 -43 -3 -8 -7
-28 -9 -45 -3 -16 -8 -33 -13 -38 -5 -5 -7 -15 -5 -22 3 -7 -2 -36 -10 -65
-22 -75 -12 -90 63 -90 67 0 94 18 100 65 1 17 4 31 6 33 2 2 39 4 82 4 68 1
83 4 107 25 15 12 25 27 21 32 -3 5 0 13 5 16 8 5 5 14 -7 28 -10 11 -13 17
-6 14 17 -10 72 60 66 84 -11 39 -30 44 -185 44 -82 0 -157 -3 -168 -7z m330
-22 c0 -2 -7 -20 -15 -40 l-15 -36 -110 0 c-112 0 -110 1 -110 -37 0 -4 46 -6
101 -4 95 2 101 1 94 -16 -4 -10 -10 -26 -12 -35 -5 -16 -19 -18 -104 -18
l-98 0 -11 -42 c-6 -24 -12 -47 -13 -51 -3 -11 -107 -15 -107 -4 0 7 34 147
60 247 l9 35 166 2 c91 1 165 1 165 -1z"/>
<path d="M2665 1240 c-56 -6 -75 -15 -75 -35 0 -7 -6 -16 -12 -18 -10 -4 -10
-6 -1 -6 9 -1 10 -8 4 -23 -5 -13 -17 -57 -26 -98 -10 -41 -21 -79 -25 -85 -3
-5 -6 -17 -5 -25 0 -8 -4 -18 -10 -22 -6 -5 -3 -8 8 -8 9 0 17 -4 17 -10 0 -6
26 -10 58 -10 55 1 92 16 92 38 0 6 6 13 13 15 8 4 8 6 0 6 -6 1 -9 10 -6 21
3 11 8 18 12 16 3 -2 7 12 8 32 4 52 25 132 35 132 5 0 6 5 2 11 -3 6 0 15 7
20 10 6 11 9 2 9 -7 0 -13 6 -13 13 0 22 -34 33 -85 27z m65 -28 c0 -1 -16
-66 -36 -145 l-35 -142 -55 0 c-50 0 -55 2 -49 20 3 11 19 76 36 145 l31 125
54 0 c30 0 54 -1 54 -3z"/>
<path d="M2862 1232 c-10 -9 -23 -28 -27 -42 -12 -37 -12 -90 -1 -82 17 10 80
2 88 -11 11 -17 10 -59 -1 -52 -5 3 -9 -8 -9 -25 1 -17 -4 -36 -10 -42 -6 -6
-8 -17 -5 -24 3 -8 0 -14 -7 -14 -7 0 -1 -9 13 -20 18 -15 40 -20 81 -20 33 0
56 4 56 11 0 5 5 7 10 4 6 -3 10 -3 11 2 3 47 9 86 16 96 4 6 6 20 4 31 -1 10
2 15 7 12 14 -8 23 19 11 31 -7 7 -5 12 6 17 11 4 14 2 10 -7 -4 -6 0 -4 7 5
13 15 15 15 26 0 9 -14 11 -14 9 -2 -1 10 5 14 18 12 25 -3 62 36 57 61 -2 9
4 20 12 23 22 8 20 17 -6 33 -15 9 -71 14 -189 17 -146 3 -169 1 -187 -14z
m358 -23 c0 -3 -5 -20 -11 -38 -11 -30 -13 -31 -70 -31 l-58 0 -10 -37 c-6
-21 -17 -70 -26 -109 l-16 -71 -54 0 c-30 0 -55 3 -55 6 0 3 11 49 25 101 14
52 25 98 25 103 0 4 -29 7 -64 7 l-64 0 14 38 15 37 175 0 c95 0 174 -3 174
-6z"/>
<path d="M3657 1243 c-48 -7 -24 -28 31 -28 48 1 52 -1 46 -20 -4 -11 -21 -76
-39 -145 l-31 -125 -55 -2 -56 -2 -64 90 c-35 49 -64 86 -65 82 -1 -4 -12 -45
-24 -90 l-23 -83 -54 0 c-49 0 -54 2 -48 18 4 9 22 75 40 146 l33 128 62 0 63
0 54 -83 c30 -46 56 -85 57 -87 7 -6 46 170 40 180 -9 14 -33 -30 -34 -60 0
-13 -4 -21 -9 -18 -5 4 -7 -3 -4 -14 3 -11 3 -20 1 -20 -10 0 -68 90 -66 101
2 7 -2 13 -9 14 -6 0 -15 3 -19 8 -4 4 -35 7 -68 7 -68 -1 -106 -22 -106 -60
0 -12 -4 -19 -9 -16 -5 3 -7 -10 -4 -29 3 -19 0 -35 -5 -35 -5 0 -9 -6 -9 -12
1 -7 -3 -35 -7 -61 -6 -34 -12 -47 -22 -43 -7 3 -16 0 -20 -6 -4 -7 -3 -8 4
-4 8 5 12 -2 12 -21 0 -16 5 -34 12 -41 15 -15 128 -16 128 -1 0 5 4 7 10 4 5
-3 7 0 4 8 -3 8 -1 18 5 22 6 3 11 17 11 31 0 17 4 23 12 18 6 -4 8 -3 5 4 -4
5 -4 18 -1 27 6 14 8 14 18 -3 26 -44 64 -98 79 -110 10 -8 38 -12 79 -10 l63
3 21 45 c12 25 19 50 17 57 -3 6 1 22 8 35 13 24 17 35 22 78 2 14 7 31 10 37
9 14 2 63 -10 73 -12 11 -54 17 -86 13z"/>
<path d="M3883 1238 c-15 -7 -28 -29 -37 -62 -24 -83 -34 -135 -27 -142 3 -4
0 -4 -7 0 -7 5 -11 15 -7 25 5 12 3 13 -5 5 -9 -9 -9 -17 -1 -32 11 -21 5 -52
-10 -52 -4 0 -5 -7 -2 -17 4 -11 3 -14 -5 -9 -9 6 -9 1 -1 -18 7 -14 19 -28
28 -30 37 -12 329 -10 344 2 7 6 16 9 20 6 3 -3 3 3 0 14 -2 11 0 23 6 26 16
10 13 37 -5 57 -15 16 -14 19 10 40 23 20 24 24 11 38 -13 15 -7 44 9 42 3 -1
6 1 6 4 0 3 7 19 15 35 18 35 6 70 -23 70 -9 0 -80 3 -157 5 -92 3 -148 1
-162 -7z m318 -53 l-16 -45 -106 0 c-105 0 -119 -4 -119 -36 0 -2 48 -4 106
-4 97 0 106 -1 99 -17 -4 -10 -9 -25 -12 -33 -3 -12 -22 -14 -109 -12 -65 3
-104 0 -104 -6 0 -6 -2 -16 -5 -24 -4 -10 18 -12 114 -10 l119 4 -11 -41 -11
-41 -168 0 c-92 0 -168 2 -168 5 0 3 16 70 36 148 l35 142 149 -4 c94 -2 155
1 166 8 11 6 20 11 20 11 1 0 -6 -20 -15 -45z m-1 -109 c0 -3 -4 -8 -10 -11
-5 -3 -10 -1 -10 4 0 6 5 11 10 11 6 0 10 -2 10 -4z"/>
<path d="M4408 1233 c-16 -2 -28 -9 -28 -15 0 -6 -11 -8 -25 -6 -13 3 -22 1
-19 -3 3 -5 -4 -18 -14 -30 -25 -26 -37 -101 -22 -129 13 -24 3 -50 -11 -29
-6 10 -9 6 -9 -12 0 -15 -7 -32 -15 -39 -18 -15 -14 -52 6 -56 8 -2 25 -6 39
-9 33 -8 235 -7 268 2 15 3 33 12 40 20 8 7 18 11 23 7 5 -3 8 0 7 8 -2 8 5
12 17 10 15 -2 17 -1 6 6 -7 6 -10 15 -6 22 5 8 10 9 14 1 9 -15 6 90 -3 111
-5 10 -13 15 -20 12 -6 -3 -2 2 9 11 11 9 19 21 18 26 -2 5 3 9 11 9 21 0 24
20 9 51 -10 19 -20 26 -38 24 -14 -2 -25 1 -25 6 0 9 -177 10 -232 2z m277
-35 c4 -4 -4 -22 -17 -42 -18 -26 -28 -32 -38 -25 -24 14 -186 11 -199 -4 -18
-23 -2 -27 97 -27 129 0 153 -21 118 -105 -24 -56 -62 -70 -201 -70 -66 0
-132 3 -147 8 l-27 7 22 35 c15 23 27 32 37 28 31 -13 190 -15 205 -3 29 24
14 30 -75 30 -116 0 -140 11 -140 62 0 54 14 76 63 99 36 17 60 19 169 17 70
-2 130 -7 133 -10z"/>
<path d="M4576 978 c3 -5 10 -6 15 -3 13 9 11 12 -6 12 -8 0 -12 -4 -9 -9z"/>
<path d="M4895 1230 c-22 -4 -46 -5 -55 -3 -13 4 -13 4 0 -7 13 -10 11 -11 -7
-7 -13 3 -26 0 -30 -5 -3 -6 -1 -8 5 -4 6 3 13 2 17 -4 3 -5 0 -10 -8 -10 -21
0 -39 -47 -43 -115 -3 -43 -2 -54 5 -40 6 13 10 15 10 5 1 -24 -37 -63 -51
-54 -10 6 -10 5 0 -8 10 -13 10 -17 0 -20 -10 -4 -11 -8 -1 -20 7 -8 9 -19 5
-23 -4 -5 -2 -5 5 -1 6 3 14 2 17 -3 10 -15 158 -22 236 -11 41 6 84 12 94 14
11 1 25 11 30 22 6 10 19 30 29 43 20 28 23 81 5 100 -11 11 -10 12 0 6 12 -6
12 -3 2 15 -10 18 -9 24 1 31 7 4 16 6 19 4 4 -2 6 14 6 36 -2 40 -19 63 -43
54 -7 -2 -15 0 -18 5 -7 12 -171 11 -230 0z m198 -21 c40 -6 74 -13 75 -14 2
-2 -7 -19 -20 -39 -18 -26 -28 -32 -38 -25 -24 14 -186 11 -199 -4 -18 -23 -2
-27 96 -27 113 0 133 -8 133 -55 0 -94 -47 -120 -215 -120 -66 0 -133 3 -148
8 l-28 8 26 34 c23 30 30 33 51 24 40 -14 189 -11 203 4 18 23 2 27 -99 27
-84 0 -99 3 -115 20 -13 14 -16 29 -12 56 15 92 119 129 290 103z"/>
<path d="M2540 1226 c0 -2 8 -10 18 -17 15 -13 16 -12 3 4 -13 16 -21 21 -21
13z"/>
<path d="M3277 1189 c7 -7 15 -10 18 -7 3 3 -2 9 -12 12 -14 6 -15 5 -6 -5z"/>
<path d="M1088 1163 c7 -3 16 -2 19 1 4 3 -2 6 -13 5 -11 0 -14 -3 -6 -6z"/>
<path d="M790 1120 c-9 -6 -10 -10 -3 -10 6 0 15 5 18 10 8 12 4 12 -15 0z"/>
<path d="M4192 1105 c2 -1 12 -7 24 -13 15 -8 21 -8 21 1 0 7 -11 13 -24 13
-14 1 -23 1 -21 -1z"/>
<path d="M4191 1013 c7 -12 15 -20 18 -17 3 2 -3 12 -13 22 -17 16 -18 16 -5
-5z"/>
<path d="M4220 998 c0 -12 3 -17 8 -12 4 5 11 12 15 15 5 3 2 9 -7 12 -12 5
-16 0 -16 -15z"/>
<path d="M4249 983 c-13 -16 -12 -17 4 -4 16 13 21 21 13 21 -2 0 -10 -8 -17
-17z"/>
<path d="M4701 974 c0 -11 3 -14 6 -6 3 7 2 16 -1 19 -3 4 -6 -2 -5 -13z"/>
<path d="M3206 945 c-9 -26 -7 -32 5 -12 6 10 9 21 6 23 -2 3 -7 -2 -11 -11z"/>
<path d="M448 943 c7 -3 16 -2 19 1 4 3 -2 6 -13 5 -11 0 -14 -3 -6 -6z"/>
<path d="M3425 940 c-16 -7 -17 -9 -3 -9 9 -1 20 4 23 9 7 11 7 11 -20 0z"/>
<path d="M4679 933 c-13 -16 -12 -17 4 -4 16 13 21 21 13 21 -2 0 -10 -8 -17
-17z"/>
</g>
</svg>
