<svg version="1.1" id="Layer_1" xmlns="http://www.w3.org/2000/svg" xmlns:xlink="http://www.w3.org/1999/xlink" x="0px" y="0px"
	 width="100%" viewBox="0 0 907 452" enable-background="new 0 0 907 452" xml:space="preserve">
<path fill="#130D11" opacity="1.000000" stroke="none" 
	d="
M561.000000,453.000000 
	C374.000031,453.000000 187.500061,453.000000 1.000075,453.000000 
	C1.000050,302.333405 1.000050,151.666794 1.000025,1.000136 
	C303.333221,1.000090 605.666443,1.000090 907.999756,1.000045 
	C907.999817,151.666519 907.999817,302.333038 907.999878,452.999786 
	C792.500000,453.000000 677.000000,453.000000 561.000000,453.000000 
M765.838745,285.726074 
	C765.503845,283.961670 765.168884,282.197235 765.462524,280.430786 
	C765.654053,280.515717 765.845581,280.600616 766.143250,281.068207 
	C766.424072,280.976685 766.704895,280.885162 767.786255,280.782257 
	C770.473267,281.438049 773.160217,282.093842 775.994507,282.785583 
	C778.119324,279.338531 780.187012,275.984192 783.011597,271.401886 
	C772.158203,270.633606 762.292114,269.432159 752.422913,269.405731 
	C745.325684,269.386719 738.115662,270.629608 732.196838,275.332306 
	C727.881897,278.760651 725.103882,287.375946 727.199341,292.155273 
	C729.472778,297.340698 734.409851,297.288361 739.165344,297.250702 
	C745.159668,297.203217 751.161194,297.062531 757.144958,297.312439 
	C758.815552,297.382233 760.434509,298.688416 762.077148,299.427429 
	C760.626709,300.806152 759.331055,302.432861 757.668030,303.471069 
	C756.660522,304.100006 755.073181,303.995575 753.764893,303.915985 
	C744.733826,303.366364 735.707642,302.736572 725.552612,302.057129 
	C724.229614,303.928680 721.956604,307.144043 719.405151,310.753357 
	C732.011902,314.323090 744.400818,314.525085 756.823425,313.396240 
	C760.906006,313.025269 765.053223,311.974213 768.879395,310.485107 
	C775.258423,308.002472 778.914795,301.778473 778.688293,295.045959 
	C778.529480,290.323914 775.773926,287.349854 771.016846,286.828369 
	C769.365906,286.647400 767.703369,286.572388 765.838745,285.726074 
M634.014038,279.870575 
	C635.053223,276.594788 636.092407,273.318970 637.290039,269.543701 
	C620.501038,269.543701 604.300781,269.543701 587.918152,269.543701 
	C584.261597,283.914978 580.595703,298.323212 576.867493,312.976166 
	C593.973694,312.976166 610.743286,312.976166 627.724304,312.976166 
	C628.740295,309.464600 629.725708,306.058838 630.837219,302.217194 
	C618.728882,302.217194 607.352051,302.217194 595.553589,302.217194 
	C596.213440,300.104370 596.743042,298.408569 597.356995,296.442932 
	C607.648499,296.442932 617.734436,296.442932 627.923767,296.442932 
	C628.983093,293.171387 629.948059,290.191376 631.031555,286.472443 
	C631.964783,284.500671 632.897949,282.528900 634.014038,279.870575 
M552.500000,247.987473 
	C566.609619,247.329178 580.779297,247.262146 594.811279,245.838669 
	C607.653809,244.535828 619.649231,239.916000 624.978882,226.917908 
	C628.399475,218.575668 630.518921,209.461075 631.672119,200.493439 
	C632.889709,191.025314 627.130310,184.777954 617.733826,182.917587 
	C616.541748,182.681595 615.373962,182.323364 614.194885,182.021759 
	C628.941101,179.589508 637.438538,170.964340 640.997375,156.985580 
	C641.858521,153.603027 642.854431,150.244263 643.506165,146.820831 
	C645.718506,135.200592 641.077759,126.960938 629.584656,124.145203 
	C621.742798,122.223984 613.514771,121.076820 605.448059,121.012581 
	C567.478027,120.710258 529.504089,120.901733 491.531525,120.916656 
	C488.056641,120.918022 484.581757,120.916840 481.168915,120.916840 
	C470.609467,163.330978 460.115509,205.481995 449.534058,247.984558 
	C483.903656,247.984558 517.701843,247.984558 552.500000,247.987473 
M726.500061,120.863617 
	C714.699402,121.256607 702.813232,120.893433 691.117493,122.214752 
	C672.226562,124.348938 659.540649,134.738617 654.773926,153.562851 
	C649.466675,174.521255 644.224365,195.501785 639.398743,216.574570 
	C635.729919,232.595886 643.041199,243.344223 659.137451,246.344147 
	C663.684753,247.191650 668.369080,247.644028 672.994690,247.675797 
	C701.651978,247.872589 730.310486,247.978760 758.968323,247.929260 
	C767.279785,247.914902 775.616455,247.597305 783.895813,246.886078 
	C803.691101,245.185608 816.237671,234.245193 821.119080,214.903198 
	C822.625183,208.935287 824.192200,202.982056 825.631714,196.998169 
	C829.561340,180.663818 833.821167,164.395660 837.210022,147.948761 
	C839.764465,135.551498 834.337769,127.262199 822.166077,123.679810 
	C817.422058,122.283539 812.388062,121.220833 807.473083,121.165382 
	C780.817688,120.864677 754.158203,120.926643 726.500061,120.863617 
M106.782295,278.220703 
	C112.135292,277.021332 117.508629,275.902893 122.827232,274.566620 
	C124.185204,274.225433 125.601448,273.429016 126.598709,272.444489 
	C137.981674,261.207031 149.260712,249.864258 160.657303,238.640762 
	C161.848099,237.468033 163.549118,236.281296 165.122940,236.110565 
	C184.307480,234.029266 203.513672,232.148132 222.709259,230.166687 
	C223.791153,230.055008 225.147110,229.835052 225.837830,229.135010 
	C231.275528,223.623642 236.582214,217.983017 242.943069,211.320282 
	C223.872894,211.320282 206.212097,211.320282 189.838242,211.320282 
	C204.303940,196.221878 219.051071,180.829742 234.067627,165.156372 
	C236.867889,171.110901 239.463074,176.477417 241.930099,181.902191 
	C251.355591,202.628082 260.701813,223.390228 270.217682,244.074402 
	C270.915466,245.591095 272.710083,247.652863 274.025177,247.675308 
	C288.975800,247.930222 303.932312,247.837158 319.391052,247.837158 
	C318.842102,246.165741 318.551605,244.910202 318.032715,243.757477 
	C311.345428,228.900421 304.548370,214.092346 297.929871,199.204819 
	C283.746460,167.300766 269.663055,135.352264 255.506485,103.436234 
	C253.404633,98.697586 247.760010,97.870476 244.058380,101.646942 
	C236.710510,109.143349 229.441879,116.719627 221.995468,124.116875 
	C176.952591,168.862152 131.863037,213.560425 86.802765,258.288177 
	C76.255096,268.757996 65.760269,279.281067 55.241135,289.779633 
	C55.366913,290.081390 55.492687,290.383118 55.618465,290.684845 
	C72.408707,286.609863 89.198944,282.534882 106.782295,278.220703 
M363.499603,120.823311 
	C354.715942,120.823311 345.932281,120.823311 337.379059,120.823311 
	C331.141937,145.996979 325.476868,170.808868 318.728485,195.322510 
	C315.050018,208.684723 314.821716,220.573303 321.265381,233.600510 
	C325.274689,241.706116 330.087433,245.439087 338.029846,246.723053 
	C341.957611,247.358017 345.967194,247.772278 349.941620,247.787231 
	C378.420135,247.894348 406.899139,247.876343 435.377991,247.883041 
	C436.838928,247.883377 438.299866,247.746002 440.145294,247.653458 
	C442.680817,237.106827 445.184814,226.691345 447.788757,215.860092 
	C445.431091,215.860092 443.780487,215.860352 442.129883,215.860046 
	C418.147919,215.855545 394.165894,215.887360 370.184052,215.828033 
	C360.916229,215.805115 358.431396,212.611771 360.699463,203.832611 
	C367.807312,176.320404 374.953033,148.818008 382.210663,120.823555 
	C376.082703,120.823555 370.290894,120.823555 363.499603,120.823311 
M228.895874,286.154449 
	C253.052017,283.533936 277.210693,280.936310 301.362915,278.280121 
	C309.411530,277.394897 309.403992,277.326294 310.900970,269.291382 
	C261.318237,269.291382 211.781586,269.291382 162.244934,269.291382 
	C162.242401,269.404053 162.239853,269.516724 162.237320,269.629364 
	C183.300018,271.286987 204.362717,272.944580 225.425415,274.602173 
	C163.245056,283.540680 101.410416,292.868469 40.327530,306.844299 
	C50.382038,306.500946 60.364616,305.585754 70.323959,304.464264 
	C104.058205,300.665497 137.787735,296.824097 171.512024,292.937836 
	C190.346100,290.767456 209.166229,288.476105 228.895874,286.154449 
M519.906982,288.162231 
	C525.204102,295.625671 530.443054,303.131805 535.858032,310.508759 
	C536.716919,311.678772 538.329651,312.926941 539.661072,313.005951 
	C544.626831,313.300720 549.620605,313.123688 554.971741,313.123688 
	C558.598572,298.604767 562.166626,284.321136 565.830811,269.652527 
	C560.265320,269.652527 555.341492,269.652527 550.060730,269.652527 
	C547.846069,278.140381 545.645386,286.574615 543.205383,295.926178 
	C537.611511,287.500366 532.566833,279.781372 527.354797,272.177063 
	C526.545410,270.996155 525.008667,269.630157 523.744141,269.563354 
	C518.298645,269.275757 512.829224,269.440460 507.333679,269.440460 
	C503.559448,284.067230 499.868683,298.370514 496.128326,312.865906 
	C501.387939,312.865906 506.606354,312.865906 511.788086,312.865906 
	C514.304993,304.351379 516.746765,296.090973 519.906982,288.162231 
M682.274841,296.975220 
	C684.295105,297.659882 686.315369,298.344543 688.335632,299.029236 
	C686.413696,300.515350 684.608276,302.204773 682.520447,303.401428 
	C681.483398,303.995880 679.916565,303.848297 678.608643,303.758148 
	C670.295959,303.184967 661.988647,302.534180 652.980652,301.856354 
	C651.457825,304.055817 649.209045,307.303802 646.753784,310.849976 
	C659.127747,314.055573 671.379272,314.583679 683.634827,313.187683 
	C688.622925,312.619537 693.753540,311.115387 698.238037,308.874115 
	C703.682190,306.153229 706.892151,296.976929 704.745972,291.893799 
	C702.238708,285.955627 696.814026,286.283234 691.547058,286.447815 
	C686.224731,286.614227 680.886169,286.795624 675.576233,286.534332 
	C673.741821,286.444031 671.971863,285.043823 670.172424,284.242004 
	C671.899414,282.946381 673.529541,281.478729 675.394592,280.428070 
	C676.318298,279.907684 677.682617,280.011383 678.833496,280.077637 
	C687.014221,280.548706 695.191345,281.083191 704.175964,281.648132 
	C705.491638,279.408356 707.448364,276.077209 709.530823,272.532074 
	C697.377197,269.751068 685.681580,268.161285 673.879028,270.041504 
	C669.220398,270.783691 664.512207,272.403168 660.318359,274.573486 
	C655.077576,277.285614 652.024719,286.192078 654.104248,291.699677 
	C656.250793,297.384705 661.441772,297.082611 666.338684,297.035522 
	C671.332214,296.987518 676.326355,296.991943 682.274841,296.975220 
M352.499908,269.222443 
	C344.190399,269.222443 335.880890,269.222443 327.455444,269.222443 
	C323.776550,283.968048 320.202820,298.292084 316.588501,312.778839 
	C322.109436,312.778839 327.369507,312.778839 332.604858,312.778839 
	C333.682434,308.641418 334.962555,304.827454 335.606323,300.908905 
	C336.129089,297.726746 337.562225,296.959503 340.604584,297.033936 
	C349.058136,297.240753 357.520020,297.105713 366.098297,297.105713 
	C367.225952,293.691406 368.222748,290.673309 369.393585,287.128235 
	C358.790741,287.128235 349.021027,287.128235 339.307251,287.128235 
	C339.187134,281.866791 341.240417,279.886841 346.508331,280.212555 
	C354.308655,280.694824 362.166016,280.440857 369.989136,280.189789 
	C371.338715,280.146454 373.191315,278.856750 373.844818,277.628418 
	C375.135071,275.203278 375.748627,272.418121 376.829163,269.229675 
	C368.727844,269.229675 361.113861,269.229675 352.499908,269.222443 
M481.862640,280.831238 
	C484.210236,277.316498 486.557800,273.801788 489.490631,269.410889 
	C470.183136,269.410889 452.743591,269.410889 435.081573,269.410889 
	C433.738007,273.105804 432.399872,276.785706 430.915741,280.867126 
	C437.447052,280.867126 443.558502,280.867126 450.107605,280.867126 
	C447.523071,291.764709 445.028412,302.283203 442.530518,312.815521 
	C448.177795,312.815521 453.447418,312.815521 458.824554,312.815521 
	C461.427429,302.004211 463.973907,291.427155 466.525391,280.829254 
	C471.668152,280.829254 476.324158,280.829254 481.862640,280.831238 
M406.969604,297.553253 
	C409.202667,288.305908 411.435730,279.058594 413.723328,269.585510 
	C407.881622,269.585510 402.652039,269.585510 397.485382,269.585510 
	C393.766174,284.140961 390.120392,298.408997 386.426025,312.867310 
	C391.844879,312.867310 397.271484,312.867310 402.809296,312.867310 
	C404.167908,307.948883 405.491638,303.156708 406.969604,297.553253 
M829.338135,225.712418 
	C820.449829,247.033951 803.067505,257.344940 781.540588,262.378326 
	C781.893311,262.713623 782.119202,263.118713 782.352478,263.122955 
	C807.129700,263.572632 827.232056,255.353134 835.989075,229.061447 
	C840.718201,214.862991 842.145508,199.556290 844.931946,184.725067 
	C845.638062,180.966858 845.844543,177.114777 846.280701,173.305847 
	C846.067261,173.310547 845.853821,173.315231 845.640381,173.319931 
	C840.329407,190.564056 835.018433,207.808182 829.338135,225.712418 
z"/>
<path fill="#FCFCFC" opacity="1.000000" stroke="none" 
	d="
M552.000000,247.986023 
	C517.701843,247.984558 483.903656,247.984558 449.534058,247.984558 
	C460.115509,205.481995 470.609467,163.330978 481.168915,120.916840 
	C484.581757,120.916840 488.056641,120.918022 491.531525,120.916656 
	C529.504089,120.901733 567.478027,120.710258 605.448059,121.012581 
	C613.514771,121.076820 621.742798,122.223984 629.584656,124.145203 
	C641.077759,126.960938 645.718506,135.200592 643.506165,146.820831 
	C642.854431,150.244263 641.858521,153.603027 640.997375,156.985580 
	C637.438538,170.964340 628.941101,179.589508 614.194885,182.021759 
	C615.373962,182.323364 616.541748,182.681595 617.733826,182.917587 
	C627.130310,184.777954 632.889709,191.025314 631.672119,200.493439 
	C630.518921,209.461075 628.399475,218.575668 624.978882,226.917908 
	C619.649231,239.916000 607.653809,244.535828 594.811279,245.838669 
	C580.779297,247.262146 566.609619,247.329178 552.000000,247.986023 
M532.500122,196.342163 
	C524.195374,196.342163 515.890564,196.342163 507.276978,196.342163 
	C505.463287,203.587708 503.754791,210.413086 502.032715,217.292709 
	C502.994324,217.504364 503.477692,217.703125 503.961426,217.703995 
	C527.115601,217.745346 550.271423,217.912689 573.422241,217.646973 
	C577.041443,217.605408 580.886780,216.062317 584.177185,214.348816 
	C587.692505,212.518188 589.894470,204.577698 588.523315,200.914261 
	C586.829163,196.388092 582.909424,196.343674 578.975952,196.346756 
	C563.817322,196.358673 548.658630,196.344833 532.500122,196.342163 
M538.500488,149.541916 
	C531.710388,149.541916 524.920227,149.541916 517.689270,149.541916 
	C516.067749,156.360504 514.508057,162.919128 512.890198,169.722397 
	C514.348206,169.859161 515.321350,170.029816 516.294495,170.030060 
	C537.757385,170.035172 559.220276,170.025330 580.683167,170.004837 
	C582.677856,170.002930 584.705444,170.124344 586.661011,169.821671 
	C593.432739,168.773529 598.156006,162.731979 597.672180,155.955307 
	C597.361816,151.608124 593.473389,149.430969 585.917175,149.376266 
	C585.418335,149.372650 584.919434,149.388763 584.420532,149.390457 
	C569.447144,149.441559 554.473755,149.492004 538.500488,149.541916 
z"/>
<path fill="#FCFCFC" opacity="1.000000" stroke="none" 
	d="
M727.000122,120.863647 
	C754.158203,120.926643 780.817688,120.864677 807.473083,121.165382 
	C812.388062,121.220833 817.422058,122.283539 822.166077,123.679810 
	C834.337769,127.262199 839.764465,135.551498 837.210022,147.948761 
	C833.821167,164.395660 829.561340,180.663818 825.631714,196.998169 
	C824.192200,202.982056 822.625183,208.935287 821.119080,214.903198 
	C816.237671,234.245193 803.691101,245.185608 783.895813,246.886078 
	C775.616455,247.597305 767.279785,247.914902 758.968323,247.929260 
	C730.310486,247.978760 701.651978,247.872589 672.994690,247.675797 
	C668.369080,247.644028 663.684753,247.191650 659.137451,246.344147 
	C643.041199,243.344223 635.729919,232.595886 639.398743,216.574570 
	C644.224365,195.501785 649.466675,174.521255 654.773926,153.562851 
	C659.540649,134.738617 672.226562,124.348938 691.117493,122.214752 
	C702.813232,120.893433 714.699402,121.256607 727.000122,120.863647 
M784.730164,188.214905 
	C786.713806,180.311386 788.727600,172.415298 790.673523,164.502502 
	C793.049805,154.839233 790.688660,151.432571 780.743896,151.183350 
	C768.758728,150.882965 756.761780,151.037369 744.769958,151.022186 
	C734.108459,151.008698 723.445190,150.916901 712.785889,151.072495 
	C702.264709,151.226059 698.867676,153.961395 696.318298,164.033630 
	C692.888672,177.583435 689.533997,191.152390 686.197266,204.725449 
	C684.164062,212.996185 686.578674,216.484512 695.096863,216.558746 
	C717.917419,216.757645 740.741760,216.820618 763.561951,216.626144 
	C774.321655,216.534454 778.457214,212.876694 781.081177,202.544388 
	C782.226868,198.032806 783.338379,193.512527 784.730164,188.214905 
z"/>
<path fill="#FCFCFC" opacity="1.000000" stroke="none" 
	d="
M106.385742,278.340302 
	C89.198944,282.534882 72.408707,286.609863 55.618465,290.684845 
	C55.492687,290.383118 55.366913,290.081390 55.241135,289.779633 
	C65.760269,279.281067 76.255096,268.757996 86.802765,258.288177 
	C131.863037,213.560425 176.952591,168.862152 221.995468,124.116875 
	C229.441879,116.719627 236.710510,109.143349 244.058380,101.646942 
	C247.760010,97.870476 253.404633,98.697586 255.506485,103.436234 
	C269.663055,135.352264 283.746460,167.300766 297.929871,199.204819 
	C304.548370,214.092346 311.345428,228.900421 318.032715,243.757477 
	C318.551605,244.910202 318.842102,246.165741 319.391052,247.837158 
	C303.932312,247.837158 288.975800,247.930222 274.025177,247.675308 
	C272.710083,247.652863 270.915466,245.591095 270.217682,244.074402 
	C260.701813,223.390228 251.355591,202.628082 241.930099,181.902191 
	C239.463074,176.477417 236.867889,171.110901 234.067627,165.156372 
	C219.051071,180.829742 204.303940,196.221878 189.838242,211.320282 
	C206.212097,211.320282 223.872894,211.320282 242.943069,211.320282 
	C236.582214,217.983017 231.275528,223.623642 225.837830,229.135010 
	C225.147110,229.835052 223.791153,230.055008 222.709259,230.166687 
	C203.513672,232.148132 184.307480,234.029266 165.122940,236.110565 
	C163.549118,236.281296 161.848099,237.468033 160.657303,238.640762 
	C149.260712,249.864258 137.981674,261.207031 126.598709,272.444489 
	C125.601448,273.429016 124.185204,274.225433 122.827232,274.566620 
	C117.508629,275.902893 112.135292,277.021332 106.385742,278.340302 
z"/>
<path fill="#FCFCFC" opacity="1.000000" stroke="none" 
	d="
M363.999329,120.823433 
	C370.290894,120.823555 376.082703,120.823555 382.210663,120.823555 
	C374.953033,148.818008 367.807312,176.320404 360.699463,203.832611 
	C358.431396,212.611771 360.916229,215.805115 370.184052,215.828033 
	C394.165894,215.887360 418.147919,215.855545 442.129883,215.860046 
	C443.780487,215.860352 445.431091,215.860092 447.788757,215.860092 
	C445.184814,226.691345 442.680817,237.106827 440.145294,247.653458 
	C438.299866,247.746002 436.838928,247.883377 435.377991,247.883041 
	C406.899139,247.876343 378.420135,247.894348 349.941620,247.787231 
	C345.967194,247.772278 341.957611,247.358017 338.029846,246.723053 
	C330.087433,245.439087 325.274689,241.706116 321.265381,233.600510 
	C314.821716,220.573303 315.050018,208.684723 318.728485,195.322510 
	C325.476868,170.808868 331.141937,145.996979 337.379059,120.823311 
	C345.932281,120.823311 354.715942,120.823311 363.999329,120.823433 
z"/>
<path fill="#F4F3F4" opacity="1.000000" stroke="none" 
	d="
M228.444260,286.196899 
	C209.166229,288.476105 190.346100,290.767456 171.512024,292.937836 
	C137.787735,296.824097 104.058205,300.665497 70.323959,304.464264 
	C60.364616,305.585754 50.382038,306.500946 40.327530,306.844299 
	C101.410416,292.868469 163.245056,283.540680 225.425415,274.602173 
	C204.362717,272.944580 183.300018,271.286987 162.237320,269.629364 
	C162.239853,269.516724 162.242401,269.404053 162.244934,269.291382 
	C211.781586,269.291382 261.318237,269.291382 310.900970,269.291382 
	C309.403992,277.326294 309.411530,277.394897 301.362915,278.280121 
	C277.210693,280.936310 253.052017,283.533936 228.444260,286.196899 
z"/>
<path fill="#F8F7F8" opacity="1.000000" stroke="none" 
	d="
M519.547791,287.996399 
	C516.746765,296.090973 514.304993,304.351379 511.788086,312.865906 
	C506.606354,312.865906 501.387939,312.865906 496.128326,312.865906 
	C499.868683,298.370514 503.559448,284.067230 507.333679,269.440460 
	C512.829224,269.440460 518.298645,269.275757 523.744141,269.563354 
	C525.008667,269.630157 526.545410,270.996155 527.354797,272.177063 
	C532.566833,279.781372 537.611511,287.500366 543.205383,295.926178 
	C545.645386,286.574615 547.846069,278.140381 550.060730,269.652527 
	C555.341492,269.652527 560.265320,269.652527 565.830811,269.652527 
	C562.166626,284.321136 558.598572,298.604767 554.971741,313.123688 
	C549.620605,313.123688 544.626831,313.300720 539.661072,313.005951 
	C538.329651,312.926941 536.716919,311.678772 535.858032,310.508759 
	C530.443054,303.131805 525.204102,295.625671 519.547791,287.996399 
z"/>
<path fill="#F6F5F6" opacity="1.000000" stroke="none" 
	d="
M630.912964,287.211365 
	C629.948059,290.191376 628.983093,293.171387 627.923767,296.442932 
	C617.734436,296.442932 607.648499,296.442932 597.356995,296.442932 
	C596.743042,298.408569 596.213440,300.104370 595.553589,302.217194 
	C607.352051,302.217194 618.728882,302.217194 630.837219,302.217194 
	C629.725708,306.058838 628.740295,309.464600 627.724304,312.976166 
	C610.743286,312.976166 593.973694,312.976166 576.867493,312.976166 
	C580.595703,298.323212 584.261597,283.914978 587.918152,269.543701 
	C604.300781,269.543701 620.501038,269.543701 637.290039,269.543701 
	C636.092407,273.318970 635.053223,276.594788 633.464905,280.227173 
	C622.302917,280.583801 611.690063,280.583801 601.155396,280.583801 
	C600.553650,283.047485 600.125854,284.799042 599.536682,287.211365 
	C610.316101,287.211365 620.614563,287.211365 630.912964,287.211365 
z"/>
<path fill="#F8F7F8" opacity="1.000000" stroke="none" 
	d="
M681.797485,296.974304 
	C676.326355,296.991943 671.332214,296.987518 666.338684,297.035522 
	C661.441772,297.082611 656.250793,297.384705 654.104248,291.699677 
	C652.024719,286.192078 655.077576,277.285614 660.318359,274.573486 
	C664.512207,272.403168 669.220398,270.783691 673.879028,270.041504 
	C685.681580,268.161285 697.377197,269.751068 709.530823,272.532074 
	C707.448364,276.077209 705.491638,279.408356 704.175964,281.648132 
	C695.191345,281.083191 687.014221,280.548706 678.833496,280.077637 
	C677.682617,280.011383 676.318298,279.907684 675.394592,280.428070 
	C673.529541,281.478729 671.899414,282.946381 670.172424,284.242004 
	C671.971863,285.043823 673.741821,286.444031 675.576233,286.534332 
	C680.886169,286.795624 686.224731,286.614227 691.547058,286.447815 
	C696.814026,286.283234 702.238708,285.955627 704.745972,291.893799 
	C706.892151,296.976929 703.682190,306.153229 698.238037,308.874115 
	C693.753540,311.115387 688.622925,312.619537 683.634827,313.187683 
	C671.379272,314.583679 659.127747,314.055573 646.753784,310.849976 
	C649.209045,307.303802 651.457825,304.055817 652.980652,301.856354 
	C661.988647,302.534180 670.295959,303.184967 678.608643,303.758148 
	C679.916565,303.848297 681.483398,303.995880 682.520447,303.401428 
	C684.608276,302.204773 686.413696,300.515350 688.335632,299.029236 
	C686.315369,298.344543 684.295105,297.659882 681.797485,296.974304 
z"/>
<path fill="#F8F8F8" opacity="1.000000" stroke="none" 
	d="
M766.037109,280.685547 
	C765.845581,280.600616 765.654053,280.515717 764.784668,280.257721 
	C760.010681,280.053406 755.908142,279.871399 751.821106,280.048187 
	C749.423340,280.151947 746.937256,280.530518 744.716675,281.377380 
	C743.695190,281.766937 743.215637,283.577667 742.490356,284.743958 
	C743.669739,285.325287 744.849060,285.906616 746.347595,286.581909 
	C747.100159,286.606812 747.533508,286.537720 748.302795,286.592346 
	C749.101990,286.636353 749.565369,286.556580 750.346924,286.574707 
	C751.099121,286.607086 751.533081,286.541595 752.405518,286.603210 
	C755.572144,286.659180 758.300293,286.588074 761.263550,286.597534 
	C761.498657,286.678131 761.968689,286.516418 762.368408,286.632416 
	C763.860840,286.648590 764.953491,286.548798 766.046143,286.448975 
	C767.703369,286.572388 769.365906,286.647400 771.016846,286.828369 
	C775.773926,287.349854 778.529480,290.323914 778.688293,295.045959 
	C778.914795,301.778473 775.258423,308.002472 768.879395,310.485107 
	C765.053223,311.974213 760.906006,313.025269 756.823425,313.396240 
	C744.400818,314.525085 732.011902,314.323090 719.405151,310.753357 
	C721.956604,307.144043 724.229614,303.928680 725.552612,302.057129 
	C735.707642,302.736572 744.733826,303.366364 753.764893,303.915985 
	C755.073181,303.995575 756.660522,304.100006 757.668030,303.471069 
	C759.331055,302.432861 760.626709,300.806152 762.077148,299.427429 
	C760.434509,298.688416 758.815552,297.382233 757.144958,297.312439 
	C751.161194,297.062531 745.159668,297.203217 739.165344,297.250702 
	C734.409851,297.288361 729.472778,297.340698 727.199341,292.155273 
	C725.103882,287.375946 727.881897,278.760651 732.196838,275.332306 
	C738.115662,270.629608 745.325684,269.386719 752.422913,269.405731 
	C762.292114,269.432159 772.158203,270.633606 783.011597,271.401886 
	C780.187012,275.984192 778.119324,279.338531 775.994507,282.785583 
	C773.160217,282.093842 770.473267,281.438049 767.163757,280.630005 
	C766.373230,280.546997 766.205139,280.616272 766.037109,280.685547 
z"/>
<path fill="#F6F6F7" opacity="1.000000" stroke="none" 
	d="
M352.999878,269.226074 
	C361.113861,269.229675 368.727844,269.229675 376.829163,269.229675 
	C375.748627,272.418121 375.135071,275.203278 373.844818,277.628418 
	C373.191315,278.856750 371.338715,280.146454 369.989136,280.189789 
	C362.166016,280.440857 354.308655,280.694824 346.508331,280.212555 
	C341.240417,279.886841 339.187134,281.866791 339.307251,287.128235 
	C349.021027,287.128235 358.790741,287.128235 369.393585,287.128235 
	C368.222748,290.673309 367.225952,293.691406 366.098297,297.105713 
	C357.520020,297.105713 349.058136,297.240753 340.604584,297.033936 
	C337.562225,296.959503 336.129089,297.726746 335.606323,300.908905 
	C334.962555,304.827454 333.682434,308.641418 332.604858,312.778839 
	C327.369507,312.778839 322.109436,312.778839 316.588501,312.778839 
	C320.202820,298.292084 323.776550,283.968048 327.455444,269.222443 
	C335.880890,269.222443 344.190399,269.222443 352.999878,269.226074 
z"/>
<path fill="#F5F4F5" opacity="1.000000" stroke="none" 
	d="
M481.421387,280.830261 
	C476.324158,280.829254 471.668152,280.829254 466.525391,280.829254 
	C463.973907,291.427155 461.427429,302.004211 458.824554,312.815521 
	C453.447418,312.815521 448.177795,312.815521 442.530518,312.815521 
	C445.028412,302.283203 447.523071,291.764709 450.107605,280.867126 
	C443.558502,280.867126 437.447052,280.867126 430.915741,280.867126 
	C432.399872,276.785706 433.738007,273.105804 435.081573,269.410889 
	C452.743591,269.410889 470.183136,269.410889 489.490631,269.410889 
	C486.557800,273.801788 484.210236,277.316498 481.421387,280.830261 
z"/>
<path fill="#F7F6F7" opacity="1.000000" stroke="none" 
	d="
M406.892487,297.958862 
	C405.491638,303.156708 404.167908,307.948883 402.809296,312.867310 
	C397.271484,312.867310 391.844879,312.867310 386.426025,312.867310 
	C390.120392,298.408997 393.766174,284.140961 397.485382,269.585510 
	C402.652039,269.585510 407.881622,269.585510 413.723328,269.585510 
	C411.435730,279.058594 409.202667,288.305908 406.892487,297.958862 
z"/>
<path fill="#F2F1F2" opacity="1.000000" stroke="none" 
	d="
M829.522827,225.382355 
	C835.018433,207.808182 840.329407,190.564056 845.640381,173.319931 
	C845.853821,173.315231 846.067261,173.310547 846.280701,173.305847 
	C845.844543,177.114777 845.638062,180.966858 844.931946,184.725067 
	C842.145508,199.556290 840.718201,214.862991 835.989075,229.061447 
	C827.232056,255.353134 807.129700,263.572632 782.352478,263.122955 
	C782.119202,263.118713 781.893311,262.713623 781.540588,262.378326 
	C803.067505,257.344940 820.449829,247.033951 829.522827,225.382355 
z"/>
<path fill="#1C171A" opacity="1.000000" stroke="none" 
	d="
M630.972290,286.841919 
	C620.614563,287.211365 610.316101,287.211365 599.536682,287.211365 
	C600.125854,284.799042 600.553650,283.047485 601.155396,280.583801 
	C611.690063,280.583801 622.302917,280.583801 633.373413,280.570465 
	C632.897949,282.528900 631.964783,284.500671 630.972290,286.841919 
z"/>
<path fill="#241F21" opacity="1.000000" stroke="none" 
	d="
M750.028687,286.476807 
	C749.565369,286.556580 749.101990,286.636353 748.228027,286.362335 
	C747.221008,286.168365 746.624756,286.328156 746.028442,286.487946 
	C744.849060,285.906616 743.669739,285.325287 742.490356,284.743958 
	C743.215637,283.577667 743.695190,281.766937 744.716675,281.377380 
	C746.937256,280.530518 749.423340,280.151947 751.821106,280.048187 
	C755.908142,279.871399 760.010681,280.053406 764.470337,280.258728 
	C765.168884,282.197235 765.503845,283.961670 765.942444,286.087524 
	C764.953491,286.548798 763.860840,286.648590 762.323853,286.445343 
	C761.703003,285.984497 761.526428,285.826691 761.349915,285.668884 
	C761.242798,285.951569 761.135681,286.234253 761.028503,286.516937 
	C758.300293,286.588074 755.572144,286.659180 752.329407,286.375519 
	C751.219482,286.172791 750.624084,286.324829 750.028687,286.476807 
z"/>
<path fill="#241F21" opacity="1.000000" stroke="none" 
	d="
M766.090210,280.876892 
	C766.205139,280.616272 766.373230,280.546997 766.763489,280.635712 
	C766.704895,280.885162 766.424072,280.976685 766.090210,280.876892 
z"/>
<path fill="#1C171A" opacity="1.000000" stroke="none" 
	d="
M533.000061,196.341370 
	C548.658630,196.344833 563.817322,196.358673 578.975952,196.346756 
	C582.909424,196.343674 586.829163,196.388092 588.523315,200.914261 
	C589.894470,204.577698 587.692505,212.518188 584.177185,214.348816 
	C580.886780,216.062317 577.041443,217.605408 573.422241,217.646973 
	C550.271423,217.912689 527.115601,217.745346 503.961426,217.703995 
	C503.477692,217.703125 502.994324,217.504364 502.032715,217.292709 
	C503.754791,210.413086 505.463287,203.587708 507.276978,196.342163 
	C515.890564,196.342163 524.195374,196.342163 533.000061,196.341370 
z"/>
<path fill="#1A1418" opacity="1.000000" stroke="none" 
	d="
M539.000427,149.542236 
	C554.473755,149.492004 569.447144,149.441559 584.420532,149.390457 
	C584.919434,149.388763 585.418335,149.372650 585.917175,149.376266 
	C593.473389,149.430969 597.361816,151.608124 597.672180,155.955307 
	C598.156006,162.731979 593.432739,168.773529 586.661011,169.821671 
	C584.705444,170.124344 582.677856,170.002930 580.683167,170.004837 
	C559.220276,170.025330 537.757385,170.035172 516.294495,170.030060 
	C515.321350,170.029816 514.348206,169.859161 512.890198,169.722397 
	C514.508057,162.919128 516.067749,156.360504 517.689270,149.541916 
	C524.920227,149.541916 531.710388,149.541916 539.000427,149.542236 
z"/>
<path fill="#151014" opacity="1.000000" stroke="none" 
	d="
M784.597778,188.605560 
	C783.338379,193.512527 782.226868,198.032806 781.081177,202.544388 
	C778.457214,212.876694 774.321655,216.534454 763.561951,216.626144 
	C740.741760,216.820618 717.917419,216.757645 695.096863,216.558746 
	C686.578674,216.484512 684.164062,212.996185 686.197266,204.725449 
	C689.533997,191.152390 692.888672,177.583435 696.318298,164.033630 
	C698.867676,153.961395 702.264709,151.226059 712.785889,151.072495 
	C723.445190,150.916901 734.108459,151.008698 744.769958,151.022186 
	C756.761780,151.037369 768.758728,150.882965 780.743896,151.183350 
	C790.688660,151.432571 793.049805,154.839233 790.673523,164.502502 
	C788.727600,172.415298 786.713806,180.311386 784.597778,188.605560 
z"/>
<path fill="#130D11" opacity="1.000000" stroke="none" 
	d="
M746.347595,286.581909 
	C746.624756,286.328156 747.221008,286.168365 747.892090,286.238586 
	C747.533508,286.537720 747.100159,286.606812 746.347595,286.581909 
z"/>
<path fill="#130D11" opacity="1.000000" stroke="none" 
	d="
M750.346924,286.574707 
	C750.624084,286.324829 751.219482,286.172791 751.890991,286.248413 
	C751.533081,286.541595 751.099121,286.607086 750.346924,286.574707 
z"/>
<path fill="#130D11" opacity="1.000000" stroke="none" 
	d="
M761.263550,286.597534 
	C761.135681,286.234253 761.242798,285.951569 761.349915,285.668884 
	C761.526428,285.826691 761.703003,285.984497 761.924072,286.329346 
	C761.968689,286.516418 761.498657,286.678131 761.263550,286.597534 
z"/>
</svg>